<svg id="svg" version="1.1" width="400" height="400" viewBox="0 0 400 400" xmlns="http://www.w3.org/2000/svg" xmlns:xlink="http://www.w3.org/1999/xlink" ><g id="svgg"><path id="path0" d="M242.600 154.615 C 231.154 157.096,217.775 168.601,214.723 178.589 C 208.474 199.042,217.270 217.239,237.200 225.086 C 246.371 228.697,258.852 228.825,265.761 225.379 C 266.400 225.061,267.129 224.800,267.380 224.800 C 268.708 224.800,274.793 220.455,278.600 216.788 C 283.354 212.209,287.460 205.533,288.424 200.814 C 290.216 192.045,290.325 190.471,289.433 186.149 C 289.121 184.637,288.649 182.320,288.385 181.000 C 287.687 177.510,283.825 170.515,281.156 167.906 C 280.766 167.525,280.301 166.985,280.123 166.706 C 279.814 166.223,276.937 163.576,274.712 161.730 C 272.281 159.713,262.790 155.384,258.723 154.437 C 256.201 153.850,245.591 153.967,242.600 154.615 M257.146 167.041 C 259.699 167.614,262.358 168.379,263.054 168.741 C 263.751 169.104,264.950 169.727,265.720 170.127 C 266.984 170.783,270.716 174.419,273.132 177.350 C 277.032 182.079,278.532 191.355,276.446 197.839 C 271.846 212.134,258.620 218.372,242.000 214.085 C 234.448 212.137,226.976 203.290,225.581 194.644 C 224.083 185.354,229.083 174.006,236.261 170.406 C 236.887 170.092,237.670 169.617,238.000 169.351 C 239.359 168.257,247.514 166.147,250.752 166.052 C 251.715 166.023,254.593 166.469,257.146 167.041 M178.720 212.571 C 177.905 212.810,176.645 213.567,175.920 214.255 C 175.194 214.942,174.195 215.712,173.700 215.966 C 173.205 216.220,172.800 216.659,172.800 216.942 C 172.800 217.225,172.196 218.163,171.457 219.028 C 170.718 219.893,169.978 221.050,169.811 221.600 C 169.644 222.150,169.202 222.960,168.828 223.400 C 168.454 223.840,167.852 224.650,167.490 225.200 C 166.913 226.076,162.136 232.722,161.307 233.800 C 159.710 235.879,157.210 239.277,156.400 240.470 C 152.679 245.947,151.380 247.825,151.190 248.000 C 151.071 248.110,150.260 249.190,149.388 250.400 C 148.516 251.610,147.583 252.870,147.314 253.200 C 146.645 254.024,145.038 256.280,143.752 258.200 C 143.163 259.080,142.554 259.890,142.400 260.000 C 142.246 260.110,141.638 260.920,141.050 261.800 C 140.462 262.680,139.438 264.120,138.776 265.000 C 138.113 265.880,137.088 267.320,136.496 268.200 C 135.905 269.080,134.831 270.539,134.110 271.441 C 133.390 272.344,132.800 273.249,132.800 273.453 C 132.800 273.657,132.424 274.088,131.965 274.412 C 131.506 274.735,130.785 275.630,130.363 276.400 C 129.942 277.170,129.262 278.250,128.853 278.800 C 128.444 279.350,127.142 281.150,125.960 282.800 C 124.778 284.450,123.629 286.019,123.406 286.288 C 123.183 286.556,122.370 287.702,121.600 288.835 C 120.830 289.967,118.805 292.763,117.100 295.047 C 115.395 297.331,114.000 299.274,114.000 299.366 C 114.000 299.457,113.641 299.952,113.203 300.466 C 112.411 301.395,110.606 303.868,106.400 309.790 C 105.190 311.493,103.750 313.439,103.200 314.114 C 102.650 314.788,101.660 316.186,101.000 317.220 C 99.513 319.550,98.017 321.660,96.193 324.000 C 95.421 324.990,94.297 326.600,93.695 327.579 C 93.093 328.557,92.195 329.780,91.700 330.297 C 91.205 330.814,90.800 331.380,90.800 331.556 C 90.800 331.732,90.459 332.184,90.043 332.561 C 89.626 332.938,88.088 334.991,86.625 337.123 C 85.161 339.256,83.344 341.810,82.587 342.800 C 80.794 345.145,78.428 348.538,77.317 350.355 C 76.831 351.150,76.066 352.099,75.617 352.464 C 75.168 352.829,74.800 353.233,74.800 353.360 C 74.800 353.665,71.396 358.637,70.051 360.298 C 67.326 363.662,66.871 364.280,66.297 365.401 C 65.959 366.061,65.303 366.944,64.841 367.363 C 64.378 367.782,64.000 368.323,64.000 368.566 C 64.000 368.809,63.573 369.469,63.050 370.032 C 62.528 370.596,61.623 371.764,61.039 372.628 C 58.477 376.420,58.007 377.060,57.032 378.084 C 56.464 378.680,56.000 379.312,56.000 379.488 C 56.000 379.664,55.585 380.256,55.079 380.804 C 54.572 381.352,53.229 383.240,52.093 385.000 C 50.958 386.760,49.572 388.814,49.014 389.564 C 47.261 391.922,47.525 395.432,49.600 397.352 C 50.480 398.166,51.200 399.095,51.200 399.416 C 51.200 399.927,72.800 400.000,224.105 400.000 L 397.010 400.000 397.405 399.100 C 397.649 398.544,398.220 398.152,398.900 398.073 L 400.000 397.947 400.000 393.373 C 400.000 389.048,399.956 388.800,399.190 388.800 C 398.715 388.800,398.237 388.423,398.033 387.887 C 397.842 387.385,397.080 386.170,396.339 385.187 C 395.598 384.204,394.677 382.950,394.292 382.400 C 393.908 381.850,392.965 380.590,392.198 379.600 C 391.431 378.610,390.314 377.080,389.715 376.200 C 388.708 374.720,387.661 373.342,385.612 370.800 C 384.541 369.471,382.965 367.263,382.100 365.879 C 381.178 364.403,378.519 360.810,377.603 359.800 C 377.203 359.360,376.544 358.446,376.138 357.769 C 375.205 356.213,373.384 353.650,371.671 351.482 C 368.613 347.609,368.863 347.948,365.855 343.600 C 365.322 342.830,364.550 341.840,364.140 341.400 C 363.729 340.960,363.052 340.060,362.634 339.400 C 362.216 338.740,361.632 338.056,361.337 337.880 C 361.042 337.704,360.800 337.341,360.800 337.073 C 360.800 336.805,360.080 335.714,359.200 334.649 C 358.320 333.584,357.600 332.588,357.600 332.435 C 357.600 332.282,356.970 331.469,356.200 330.628 C 355.430 329.787,354.800 328.886,354.800 328.625 C 354.800 328.364,354.462 327.788,354.048 327.344 C 353.635 326.900,352.821 325.831,352.240 324.969 C 351.659 324.106,350.454 322.500,349.563 321.400 C 348.672 320.300,347.479 318.680,346.912 317.800 C 346.345 316.920,345.754 316.110,345.600 316.000 C 345.446 315.890,344.844 315.080,344.263 314.200 C 343.683 313.320,342.486 311.700,341.604 310.600 C 340.722 309.500,339.379 307.700,338.620 306.600 C 336.752 303.893,334.870 301.254,334.396 300.676 C 331.880 297.609,330.998 296.401,330.473 295.300 C 330.131 294.585,329.720 294.000,329.559 294.000 C 329.397 294.000,328.855 293.325,328.354 292.500 C 327.852 291.675,327.331 290.910,327.196 290.800 C 327.060 290.690,325.610 288.735,323.974 286.455 C 322.338 284.176,320.509 281.656,319.910 280.855 C 319.310 280.055,318.338 278.680,317.750 277.800 C 317.162 276.920,316.550 276.110,316.391 276.000 C 316.232 275.890,315.672 275.170,315.147 274.400 C 314.622 273.630,313.384 271.943,312.396 270.652 C 311.408 269.360,310.417 267.993,310.193 267.613 C 309.658 266.703,307.270 263.462,305.959 261.867 C 305.386 261.170,304.681 260.152,304.393 259.604 C 304.105 259.056,302.957 257.346,301.842 255.804 C 299.543 252.624,299.655 252.774,297.903 250.536 C 297.186 249.621,295.700 247.697,294.600 246.261 C 289.869 240.084,285.019 240.815,279.968 248.467 C 278.786 250.259,273.246 257.879,272.638 258.550 C 272.397 258.816,272.020 259.315,271.800 259.659 C 270.702 261.376,257.943 278.454,256.905 279.596 C 256.407 280.144,256.000 280.716,256.000 280.867 C 256.000 281.019,255.773 281.381,255.496 281.671 C 255.219 281.962,253.867 283.865,252.493 285.901 C 248.549 291.740,246.987 293.463,245.335 293.794 C 244.163 294.030,240.000 290.191,240.000 288.875 C 240.000 288.719,239.595 288.144,239.100 287.596 C 238.605 287.048,237.711 285.880,237.114 285.000 C 236.517 284.120,235.527 282.731,234.914 281.913 C 234.301 281.095,231.820 277.699,229.400 274.366 C 226.980 271.032,224.509 267.652,223.910 266.853 C 223.310 266.054,222.321 264.680,221.713 263.800 C 221.105 262.920,220.495 262.110,220.356 262.000 C 220.218 261.890,219.587 261.055,218.953 260.145 C 217.756 258.428,212.671 251.483,211.099 249.420 C 209.383 247.167,204.995 241.197,204.104 239.902 C 203.116 238.467,194.887 227.185,192.180 223.554 C 184.032 212.626,182.577 211.439,178.720 212.571 M184.256 233.500 C 185.613 235.130,187.008 236.984,191.800 243.525 C 192.240 244.125,193.491 245.783,194.581 247.208 C 195.670 248.634,197.432 250.970,198.496 252.400 C 199.560 253.830,200.650 255.270,200.918 255.600 C 201.186 255.930,202.191 257.370,203.151 258.800 C 204.111 260.230,205.555 262.210,206.359 263.200 C 209.991 267.672,209.702 268.772,203.800 272.931 C 202.040 274.171,200.420 275.326,200.200 275.497 C 199.980 275.668,198.400 276.796,196.690 278.004 C 193.686 280.125,189.825 282.885,189.000 283.501 C 188.779 283.666,187.936 284.295,187.126 284.900 C 186.316 285.505,185.493 286.000,185.296 286.000 C 185.100 286.000,184.542 286.423,184.055 286.941 C 181.572 289.584,179.050 289.181,174.400 285.395 C 172.750 284.052,169.960 281.800,168.200 280.389 C 166.440 278.979,164.910 277.724,164.800 277.601 C 164.690 277.478,163.160 276.304,161.400 274.992 C 152.852 268.620,152.829 268.492,158.800 260.383 C 160.450 258.143,162.319 255.565,162.953 254.655 C 163.587 253.745,164.226 252.910,164.374 252.800 C 164.521 252.690,165.803 251.023,167.221 249.096 C 168.639 247.168,170.300 244.918,170.910 244.096 C 172.175 242.391,175.105 238.333,176.000 237.047 C 180.452 230.644,181.503 230.192,184.256 233.500 M291.278 263.335 C 292.225 264.509,293.720 266.492,294.600 267.743 C 295.480 268.994,297.057 271.138,298.104 272.509 C 299.151 273.879,301.041 276.529,302.304 278.398 C 303.567 280.267,305.475 282.967,306.544 284.398 C 310.895 290.220,310.728 290.551,299.800 297.787 C 297.820 299.098,296.110 300.267,296.000 300.385 C 295.176 301.270,289.542 304.691,288.290 305.067 C 286.455 305.619,285.248 305.065,281.600 301.998 C 280.390 300.981,277.266 298.556,274.658 296.611 C 272.012 294.637,269.338 292.277,268.609 291.273 L 267.302 289.472 268.138 288.036 C 269.168 286.267,275.417 277.491,278.056 274.109 C 279.125 272.738,280.000 271.506,280.000 271.371 C 280.000 271.129,284.745 264.391,285.191 264.000 C 285.316 263.890,285.725 263.318,286.099 262.729 C 286.701 261.782,287.376 261.448,289.078 261.254 C 289.341 261.225,290.331 262.161,291.278 263.335 M148.258 281.776 C 148.509 282.009,150.552 283.640,152.797 285.400 C 155.042 287.160,158.346 289.773,160.140 291.208 C 161.933 292.642,164.390 294.528,165.600 295.399 C 166.810 296.269,167.980 297.179,168.200 297.421 C 168.973 298.269,174.218 301.911,175.853 302.735 C 178.974 304.308,181.537 303.686,186.501 300.153 C 187.546 299.409,188.488 298.800,188.594 298.800 C 188.700 298.800,190.095 297.891,191.693 296.780 C 193.292 295.669,195.050 294.460,195.600 294.092 C 196.150 293.725,199.840 291.162,203.800 288.397 C 207.760 285.631,211.675 282.956,212.500 282.452 C 213.325 281.947,214.000 281.390,214.000 281.213 C 214.000 281.036,214.826 280.767,215.837 280.615 C 217.849 280.314,218.970 281.103,221.210 284.400 C 221.733 285.170,222.271 285.890,222.406 286.000 C 222.540 286.110,224.385 288.630,226.504 291.600 C 231.582 298.714,232.912 300.519,233.433 301.000 C 238.138 305.351,237.985 308.231,232.699 314.800 C 231.027 316.877,231.065 316.825,229.436 319.370 C 228.606 320.669,227.718 321.942,227.463 322.200 C 227.208 322.458,225.920 324.169,224.600 326.003 C 223.280 327.836,221.475 330.251,220.589 331.368 C 219.702 332.486,217.823 335.020,216.412 337.000 C 213.408 341.217,209.514 346.514,209.209 346.800 C 208.685 347.291,202.956 355.092,202.528 355.898 C 202.265 356.391,200.464 358.907,198.525 361.488 C 196.586 364.069,194.698 366.662,194.330 367.251 C 193.961 367.839,193.388 368.654,193.055 369.061 C 191.876 370.502,187.551 376.253,184.829 380.000 C 180.812 385.527,180.015 386.291,177.952 386.586 C 174.087 387.138,68.656 386.632,67.645 386.056 L 66.690 385.513 67.755 384.456 C 68.919 383.302,70.971 380.582,72.147 378.636 C 72.558 377.956,73.323 376.970,73.847 376.445 C 74.371 375.920,74.800 375.348,74.800 375.174 C 74.800 375.000,75.037 374.619,75.328 374.329 C 75.873 373.782,78.262 370.455,79.871 368.000 C 80.376 367.230,81.016 366.337,81.294 366.015 C 82.711 364.376,85.987 359.847,88.033 356.700 C 88.713 355.655,89.394 354.800,89.548 354.800 C 89.702 354.800,90.168 354.215,90.584 353.500 C 90.999 352.785,91.451 352.110,91.588 352.000 C 91.724 351.890,92.853 350.360,94.096 348.600 C 95.339 346.840,96.819 344.858,97.385 344.196 C 97.952 343.534,98.727 342.522,99.108 341.949 C 101.383 338.522,102.240 337.305,102.934 336.515 C 103.361 336.028,103.911 335.289,104.156 334.872 C 104.580 334.148,106.800 331.065,107.535 330.179 C 107.727 329.947,108.404 328.957,109.038 327.979 C 109.673 327.000,110.284 326.110,110.396 326.000 C 111.084 325.325,114.039 321.546,114.932 320.200 C 116.272 318.179,118.199 315.496,122.000 310.359 C 123.650 308.129,125.259 305.921,125.575 305.452 C 125.891 304.984,126.545 304.150,127.027 303.600 C 127.510 303.050,128.151 302.128,128.452 301.552 C 128.754 300.976,129.410 299.986,129.912 299.352 C 130.860 298.155,134.059 293.834,139.200 286.806 C 144.106 280.100,145.570 279.287,148.258 281.776 M319.329 300.500 C 319.588 300.775,320.430 301.865,321.200 302.921 C 321.970 303.978,323.209 305.598,323.953 306.521 C 324.697 307.445,325.491 308.605,325.717 309.100 C 325.943 309.595,326.242 310.000,326.382 310.000 C 326.521 310.000,327.167 310.896,327.817 311.992 C 328.468 313.088,329.130 313.988,329.290 313.992 C 329.449 313.996,329.879 314.585,330.246 315.300 C 330.612 316.015,331.346 317.140,331.876 317.800 C 334.144 320.625,336.000 323.201,336.000 323.526 C 336.000 323.719,336.383 324.219,336.852 324.638 C 337.320 325.057,338.137 326.030,338.666 326.800 C 339.195 327.570,340.343 329.190,341.217 330.400 C 342.092 331.610,343.262 333.281,343.817 334.114 C 344.373 334.946,345.103 335.936,345.440 336.314 C 345.777 336.691,346.484 337.630,347.011 338.400 C 348.523 340.608,350.710 343.669,351.905 345.249 C 352.896 346.561,357.211 352.500,359.513 355.722 C 360.016 356.425,360.736 357.358,361.113 357.796 C 361.491 358.234,362.160 359.162,362.600 359.858 C 364.176 362.353,366.728 365.842,367.358 366.365 C 367.711 366.658,368.000 367.071,368.000 367.282 C 368.000 367.493,368.585 368.416,369.300 369.333 C 370.015 370.250,370.780 371.292,371.000 371.648 C 371.220 372.005,372.210 373.335,373.200 374.604 C 374.898 376.781,376.393 378.836,378.182 381.455 C 378.613 382.085,379.483 383.208,380.116 383.952 C 382.564 386.827,390.460 386.588,289.371 386.703 C 183.971 386.822,194.698 387.377,198.753 382.016 C 199.329 381.254,200.070 380.230,200.400 379.741 C 202.527 376.584,210.187 366.176,210.464 366.067 C 210.649 365.993,210.800 365.693,210.800 365.400 C 210.800 365.107,210.942 364.807,211.117 364.733 C 211.291 364.660,211.889 363.970,212.447 363.200 C 213.004 362.430,214.445 360.450,215.649 358.800 C 216.853 357.150,218.690 354.630,219.732 353.200 C 220.774 351.770,222.116 349.979,222.713 349.221 C 223.311 348.463,225.420 345.560,227.400 342.770 C 235.231 331.738,238.410 327.339,239.097 326.587 C 239.492 326.154,241.684 323.190,243.967 320.000 C 246.251 316.810,249.130 312.850,250.366 311.200 C 251.603 309.550,253.241 307.255,254.007 306.101 C 254.773 304.946,255.535 304.001,255.700 304.001 C 255.865 304.000,256.000 303.787,256.000 303.526 C 256.000 302.508,257.735 301.200,259.084 301.200 C 260.883 301.200,262.158 302.054,271.000 309.184 C 273.200 310.958,276.080 313.260,277.400 314.299 C 278.720 315.338,279.891 316.311,280.003 316.461 C 280.295 316.853,285.008 319.485,285.959 319.787 C 287.585 320.303,296.519 315.716,298.000 313.605 C 298.110 313.448,298.920 312.837,299.800 312.248 C 300.680 311.659,301.940 310.774,302.600 310.281 C 308.213 306.090,309.934 304.856,310.800 304.401 C 311.350 304.112,312.489 303.290,313.331 302.573 C 316.050 300.259,318.351 299.464,319.329 300.500 " stroke="none" fill="#39ec15" fill-rule="evenodd"></path><path id="path1" d="M0.000 200.000 L 0.000 400.000 25.600 400.000 C 54.059 400.000,52.632 400.157,49.600 397.352 C 47.525 395.432,47.261 391.922,49.014 389.564 C 49.572 388.814,50.958 386.760,52.093 385.000 C 53.229 383.240,54.572 381.352,55.079 380.804 C 55.585 380.256,56.000 379.664,56.000 379.488 C 56.000 379.312,56.464 378.680,57.032 378.084 C 58.007 377.060,58.477 376.420,61.039 372.628 C 61.623 371.764,62.528 370.596,63.050 370.032 C 63.573 369.469,64.000 368.809,64.000 368.566 C 64.000 368.323,64.378 367.782,64.841 367.363 C 65.303 366.944,65.958 366.061,66.296 365.401 C 66.634 364.740,67.381 363.616,67.955 362.902 C 68.530 362.189,69.473 361.019,70.050 360.302 C 71.409 358.617,74.800 353.661,74.800 353.360 C 74.800 353.233,75.168 352.829,75.617 352.464 C 76.066 352.099,76.831 351.150,77.317 350.355 C 78.428 348.538,80.794 345.145,82.587 342.800 C 83.344 341.810,85.161 339.256,86.625 337.123 C 88.088 334.991,89.626 332.938,90.043 332.561 C 90.459 332.184,90.800 331.732,90.800 331.556 C 90.800 331.380,91.205 330.814,91.700 330.297 C 92.195 329.780,93.093 328.557,93.695 327.579 C 94.297 326.600,95.421 324.990,96.193 324.000 C 98.017 321.660,99.513 319.550,101.000 317.220 C 101.660 316.186,102.650 314.788,103.200 314.114 C 103.750 313.439,105.190 311.493,106.400 309.790 C 110.606 303.868,112.411 301.395,113.203 300.466 C 113.641 299.952,114.000 299.457,114.000 299.366 C 114.000 299.274,115.395 297.331,117.100 295.047 C 118.805 292.763,120.830 289.967,121.600 288.835 C 122.370 287.702,123.183 286.556,123.406 286.288 C 123.629 286.019,124.778 284.450,125.960 282.800 C 127.142 281.150,128.444 279.350,128.853 278.800 C 129.262 278.250,129.942 277.170,130.363 276.400 C 130.785 275.630,131.506 274.735,131.965 274.412 C 132.424 274.088,132.800 273.657,132.800 273.453 C 132.800 273.249,133.390 272.344,134.110 271.441 C 134.831 270.539,135.905 269.080,136.496 268.200 C 137.088 267.320,138.113 265.880,138.776 265.000 C 139.438 264.120,140.439 262.723,140.998 261.895 C 141.558 261.067,142.277 260.077,142.595 259.695 C 143.315 258.829,144.843 256.699,146.248 254.600 C 146.837 253.720,147.434 252.910,147.573 252.800 C 147.712 252.690,148.535 251.610,149.400 250.400 C 150.265 249.190,151.071 248.110,151.190 248.000 C 151.380 247.825,152.679 245.947,156.400 240.470 C 157.210 239.277,159.710 235.879,161.307 233.800 C 162.136 232.722,166.913 226.076,167.490 225.200 C 167.852 224.650,168.461 223.840,168.844 223.400 C 171.266 220.618,170.054 220.000,162.173 220.000 C 155.748 220.000,156.322 222.539,156.474 194.813 L 156.600 171.800 158.512 168.000 C 162.022 161.024,166.171 157.836,173.397 156.565 C 177.600 155.825,209.565 155.740,210.926 156.465 C 212.603 157.358,212.774 157.989,212.787 163.326 C 212.808 171.564,214.287 170.950,193.800 171.200 C 169.929 171.491,171.877 169.142,172.074 197.400 C 172.221 218.456,172.074 217.823,176.000 214.221 C 180.670 209.938,183.052 211.313,192.180 223.554 C 194.887 227.185,203.116 238.467,204.104 239.902 C 204.995 241.197,209.383 247.167,211.099 249.420 C 212.671 251.483,217.756 258.428,218.953 260.145 C 219.587 261.055,220.218 261.890,220.356 262.000 C 220.495 262.110,221.105 262.920,221.713 263.800 C 222.321 264.680,223.310 266.054,223.910 266.853 C 224.509 267.652,226.980 271.032,229.400 274.366 C 231.820 277.699,234.301 281.095,234.914 281.913 C 235.527 282.731,236.517 284.120,237.114 285.000 C 237.711 285.880,238.605 287.048,239.100 287.596 C 239.595 288.144,240.000 288.719,240.000 288.875 C 240.000 290.191,244.163 294.030,245.335 293.794 C 246.987 293.463,248.549 291.740,252.493 285.901 C 253.867 283.865,255.219 281.962,255.496 281.671 C 255.773 281.381,256.000 281.019,256.000 280.867 C 256.000 280.716,256.407 280.144,256.905 279.596 C 257.943 278.454,270.702 261.376,271.800 259.659 C 272.020 259.315,272.397 258.816,272.638 258.550 C 273.246 257.879,278.786 250.259,279.968 248.467 C 285.019 240.815,289.869 240.084,294.600 246.261 C 295.700 247.697,297.186 249.621,297.903 250.536 C 299.655 252.774,299.543 252.624,301.842 255.804 C 302.957 257.346,304.105 259.056,304.393 259.604 C 304.681 260.152,305.386 261.170,305.959 261.867 C 307.270 263.462,309.658 266.703,310.193 267.613 C 310.417 267.993,311.408 269.360,312.396 270.652 C 313.384 271.943,314.622 273.630,315.147 274.400 C 315.672 275.170,316.232 275.890,316.391 276.000 C 316.550 276.110,317.162 276.920,317.750 277.800 C 318.338 278.680,319.310 280.055,319.910 280.855 C 320.509 281.656,322.338 284.176,323.974 286.455 C 325.610 288.735,327.060 290.690,327.196 290.800 C 327.331 290.910,327.852 291.675,328.354 292.500 C 328.855 293.325,329.397 294.000,329.559 294.000 C 329.720 294.000,330.131 294.585,330.473 295.300 C 330.998 296.401,331.880 297.609,334.396 300.676 C 334.870 301.254,336.752 303.893,338.620 306.600 C 339.379 307.700,340.722 309.500,341.604 310.600 C 342.486 311.700,343.683 313.320,344.263 314.200 C 344.844 315.080,345.446 315.890,345.600 316.000 C 345.754 316.110,346.345 316.920,346.912 317.800 C 347.479 318.680,348.672 320.300,349.563 321.400 C 350.454 322.500,351.659 324.106,352.240 324.969 C 352.821 325.831,353.635 326.900,354.048 327.344 C 354.462 327.788,354.800 328.364,354.800 328.625 C 354.800 328.886,355.430 329.787,356.200 330.628 C 356.970 331.469,357.600 332.282,357.600 332.435 C 357.600 332.588,358.320 333.584,359.200 334.649 C 360.080 335.714,360.800 336.805,360.800 337.073 C 360.800 337.341,361.042 337.704,361.337 337.880 C 361.632 338.056,362.216 338.740,362.634 339.400 C 363.052 340.060,363.729 340.960,364.140 341.400 C 364.550 341.840,365.322 342.830,365.855 343.600 C 368.863 347.948,368.613 347.609,371.671 351.482 C 373.384 353.650,375.205 356.213,376.138 357.769 C 376.544 358.446,377.203 359.360,377.603 359.800 C 378.519 360.810,381.178 364.403,382.100 365.879 C 382.965 367.263,384.541 369.471,385.612 370.800 C 387.661 373.342,388.708 374.720,389.715 376.200 C 390.314 377.080,391.431 378.610,392.198 379.600 C 392.965 380.590,393.908 381.850,394.292 382.400 C 394.677 382.950,395.598 384.204,396.339 385.187 C 397.080 386.170,397.842 387.385,398.033 387.887 C 398.237 388.423,398.715 388.800,399.190 388.800 L 400.000 388.800 400.000 194.400 L 400.000 0.000 200.000 0.000 L 0.000 0.000 0.000 200.000 M79.269 128.662 C 80.394 129.681,80.367 141.058,79.236 142.456 L 78.472 143.400 60.936 143.600 C 41.083 143.826,41.516 143.758,40.150 146.885 C 39.441 148.506,39.389 150.507,39.200 183.467 C 39.090 202.644,38.910 218.408,38.800 218.500 C 37.120 219.892,36.541 220.000,30.757 220.000 L 24.891 220.000 24.246 218.640 C 23.667 217.420,23.602 213.835,23.620 184.140 C 23.642 148.530,23.831 142.980,25.077 141.259 C 25.499 140.677,26.094 139.570,26.400 138.800 C 26.910 137.517,28.561 135.117,29.970 133.610 C 31.290 132.199,34.681 130.407,37.927 129.405 C 39.837 128.815,41.580 128.272,41.800 128.198 C 43.506 127.624,78.602 128.059,79.269 128.662 M145.994 128.715 C 147.084 129.598,147.686 138.316,146.835 140.895 C 145.979 143.488,146.729 143.381,127.839 143.600 C 108.528 143.824,108.795 143.783,107.014 146.814 C 106.214 148.175,106.198 148.823,106.086 183.282 L 105.971 218.365 104.932 219.182 C 103.988 219.924,103.330 220.000,97.809 220.000 L 91.726 220.000 91.037 218.700 C 90.396 217.492,90.356 214.815,90.474 180.800 L 90.600 144.200 92.371 140.600 C 93.345 138.620,94.255 136.910,94.392 136.800 C 94.530 136.690,95.147 135.928,95.763 135.108 C 97.917 132.238,101.237 130.349,107.200 128.600 C 110.348 127.676,144.838 127.779,145.994 128.715 M394.856 128.764 C 396.343 129.968,396.539 139.900,395.117 142.000 L 394.169 143.400 376.545 143.600 C 358.008 143.810,358.632 143.748,356.786 145.588 C 354.672 147.695,354.800 145.297,354.800 182.909 C 354.800 213.258,354.723 217.789,354.190 218.820 L 353.579 220.000 347.290 219.994 C 337.737 219.985,338.795 224.456,338.825 184.211 C 338.852 148.988,338.972 145.696,340.338 142.722 C 340.812 141.689,341.200 140.679,341.200 140.477 C 341.200 139.387,345.337 134.013,347.314 132.534 C 349.216 131.112,354.221 128.998,357.400 128.275 C 360.385 127.596,393.954 128.034,394.856 128.764 M314.065 128.900 C 316.091 130.539,315.998 128.825,316.033 164.989 L 316.065 198.600 317.133 200.595 C 318.554 203.251,320.423 204.277,324.480 204.631 C 328.676 204.997,328.877 205.320,329.121 212.059 C 329.291 216.776,329.241 217.239,328.419 218.569 L 327.535 220.000 324.149 220.000 C 312.183 220.000,303.420 213.919,301.418 204.225 C 300.311 198.867,300.505 131.504,301.631 130.063 C 302.879 128.466,312.425 127.573,314.065 128.900 M258.723 154.437 C 262.790 155.384,272.281 159.713,274.712 161.730 C 276.937 163.576,279.814 166.223,280.123 166.706 C 280.301 166.985,280.766 167.525,281.156 167.906 C 283.825 170.515,287.687 177.510,288.385 181.000 C 288.649 182.320,289.121 184.637,289.433 186.149 C 290.325 190.471,290.216 192.045,288.424 200.814 C 287.460 205.533,283.354 212.209,278.600 216.788 C 274.793 220.455,268.708 224.800,267.380 224.800 C 267.129 224.800,266.400 225.061,265.761 225.379 C 258.852 228.825,246.371 228.697,237.200 225.086 C 217.270 217.239,208.474 199.042,214.723 178.589 C 217.215 170.435,228.063 159.786,237.600 156.132 C 242.789 154.144,253.702 153.268,258.723 154.437 M79.223 156.900 C 80.361 158.265,80.371 168.653,79.236 170.056 L 78.471 171.000 63.152 171.122 C 45.623 171.263,46.182 171.321,45.620 169.297 C 44.954 166.899,45.085 158.583,45.810 157.180 L 46.421 156.000 62.446 156.000 L 78.472 156.000 79.223 156.900 M145.878 156.967 L 147.000 157.935 147.000 163.285 C 147.000 171.736,148.212 171.191,129.400 171.191 C 113.666 171.191,113.306 171.152,112.555 169.353 C 111.494 166.815,111.792 158.171,112.982 156.982 L 113.964 156.000 129.360 156.000 L 144.755 156.000 145.878 156.967 M394.964 157.231 C 396.865 159.489,396.324 169.245,394.223 170.622 C 392.672 171.638,363.450 171.305,361.900 170.254 L 360.800 169.508 360.806 163.654 C 360.815 155.288,359.106 156.027,378.464 156.012 L 393.929 156.000 394.964 157.231 M246.400 166.658 C 242.994 167.384,238.755 168.744,238.000 169.351 C 237.670 169.617,236.887 170.092,236.261 170.406 C 229.083 174.006,224.083 185.354,225.581 194.644 C 226.976 203.290,234.448 212.137,242.000 214.085 C 258.620 218.372,271.846 212.134,276.446 197.839 C 278.532 191.355,277.032 182.079,273.132 177.350 C 270.716 174.419,266.984 170.783,265.720 170.127 C 264.950 169.727,263.751 169.104,263.054 168.741 C 259.166 166.718,250.942 165.689,246.400 166.658 M178.313 233.892 C 177.371 235.152,176.330 236.572,176.000 237.047 C 175.105 238.333,172.175 242.391,170.910 244.096 C 170.300 244.918,168.639 247.168,167.221 249.096 C 165.803 251.023,164.521 252.690,164.374 252.800 C 164.226 252.910,163.587 253.745,162.953 254.655 C 162.319 255.565,160.450 258.143,158.800 260.383 C 152.829 268.492,152.852 268.620,161.400 274.992 C 163.160 276.304,164.690 277.478,164.800 277.601 C 164.910 277.724,166.440 278.979,168.200 280.389 C 169.960 281.800,172.750 284.052,174.400 285.395 C 179.050 289.181,181.572 289.584,184.055 286.941 C 184.542 286.423,185.100 286.000,185.296 286.000 C 185.493 286.000,186.316 285.505,187.126 284.900 C 187.936 284.295,188.779 283.666,189.000 283.501 C 189.825 282.885,193.686 280.125,196.690 278.004 C 198.400 276.796,199.980 275.668,200.200 275.497 C 200.420 275.326,202.040 274.171,203.800 272.931 C 209.702 268.772,209.991 267.672,206.359 263.200 C 205.555 262.210,204.111 260.230,203.151 258.800 C 202.191 257.370,201.186 255.930,200.918 255.600 C 200.650 255.270,199.560 253.830,198.496 252.400 C 197.432 250.970,195.670 248.634,194.581 247.208 C 193.491 245.783,192.240 244.125,191.800 243.525 C 181.603 229.606,181.546 229.565,178.313 233.892 M287.690 261.484 C 287.190 261.580,286.474 262.140,286.099 262.729 C 285.725 263.318,285.316 263.890,285.191 264.000 C 284.745 264.391,280.000 271.129,280.000 271.371 C 280.000 271.506,279.125 272.738,278.056 274.109 C 275.417 277.491,269.168 286.267,268.138 288.036 L 267.302 289.472 268.609 291.273 C 269.338 292.277,272.012 294.637,274.658 296.611 C 277.266 298.556,280.390 300.981,281.600 301.998 C 285.248 305.065,286.455 305.619,288.290 305.067 C 289.542 304.691,295.176 301.270,296.000 300.385 C 296.110 300.267,297.820 299.098,299.800 297.787 C 310.728 290.551,310.895 290.220,306.544 284.398 C 305.475 282.967,303.567 280.267,302.304 278.398 C 301.041 276.529,299.151 273.879,298.104 272.509 C 297.057 271.138,295.480 268.994,294.600 267.743 C 291.948 263.974,289.585 261.197,289.078 261.254 C 288.815 261.284,288.191 261.388,287.690 261.484 M143.723 281.395 C 142.885 282.115,140.850 284.551,139.200 286.806 C 134.059 293.834,130.860 298.155,129.912 299.352 C 129.410 299.986,128.754 300.976,128.452 301.552 C 128.151 302.128,127.510 303.050,127.027 303.600 C 126.545 304.150,125.891 304.984,125.575 305.452 C 125.259 305.921,123.650 308.129,122.000 310.359 C 118.199 315.496,116.272 318.179,114.932 320.200 C 114.039 321.546,111.084 325.325,110.396 326.000 C 110.284 326.110,109.673 327.000,109.038 327.979 C 108.404 328.957,107.727 329.947,107.535 330.179 C 106.800 331.065,104.580 334.148,104.156 334.872 C 103.911 335.289,103.361 336.028,102.934 336.515 C 102.240 337.305,101.383 338.522,99.108 341.949 C 98.727 342.522,97.952 343.534,97.385 344.196 C 96.819 344.858,95.339 346.840,94.096 348.600 C 92.853 350.360,91.724 351.890,91.588 352.000 C 91.451 352.110,90.999 352.785,90.584 353.500 C 90.168 354.215,89.702 354.800,89.548 354.800 C 89.394 354.800,88.713 355.655,88.033 356.700 C 85.987 359.847,82.711 364.376,81.294 366.015 C 81.016 366.337,80.376 367.230,79.871 368.000 C 78.262 370.455,75.873 373.782,75.328 374.329 C 75.037 374.619,74.800 375.000,74.800 375.174 C 74.800 375.348,74.371 375.920,73.847 376.445 C 73.323 376.970,72.558 377.956,72.147 378.636 C 70.971 380.582,68.919 383.302,67.755 384.456 L 66.690 385.513 67.645 386.056 C 68.656 386.632,174.087 387.138,177.952 386.586 C 180.015 386.291,180.812 385.527,184.829 380.000 C 187.551 376.253,191.876 370.502,193.055 369.061 C 193.388 368.654,193.961 367.839,194.330 367.251 C 194.698 366.662,196.586 364.069,198.525 361.488 C 200.464 358.907,202.265 356.391,202.528 355.898 C 202.956 355.092,208.685 347.291,209.209 346.800 C 209.514 346.514,213.408 341.217,216.412 337.000 C 217.823 335.020,219.702 332.486,220.589 331.368 C 221.475 330.251,223.280 327.836,224.600 326.003 C 225.920 324.169,227.208 322.458,227.463 322.200 C 227.718 321.942,228.606 320.669,229.436 319.370 C 231.065 316.825,231.027 316.877,232.699 314.800 C 237.985 308.231,238.138 305.351,233.433 301.000 C 232.912 300.519,231.582 298.714,226.504 291.600 C 224.385 288.630,222.540 286.110,222.406 286.000 C 222.271 285.890,221.733 285.170,221.210 284.400 C 218.970 281.103,217.849 280.314,215.837 280.615 C 214.826 280.767,214.000 281.036,214.000 281.213 C 214.000 281.390,213.325 281.947,212.500 282.452 C 211.675 282.956,207.760 285.631,203.800 288.397 C 199.840 291.162,196.150 293.725,195.600 294.092 C 195.050 294.460,193.292 295.669,191.693 296.780 C 190.095 297.891,188.700 298.800,188.594 298.800 C 188.488 298.800,187.546 299.409,186.501 300.153 C 181.537 303.686,178.974 304.308,175.853 302.735 C 174.218 301.911,168.973 298.269,168.200 297.421 C 167.980 297.179,166.810 296.269,165.600 295.399 C 164.390 294.528,161.933 292.642,160.140 291.208 C 158.346 289.773,155.042 287.160,152.797 285.400 C 150.552 283.640,148.509 282.009,148.258 281.776 C 146.483 280.133,145.304 280.034,143.723 281.395 M316.131 300.644 C 315.434 300.988,314.174 301.856,313.331 302.573 C 312.489 303.290,311.350 304.112,310.800 304.401 C 309.934 304.856,308.213 306.090,302.600 310.281 C 301.940 310.774,300.680 311.659,299.800 312.248 C 298.920 312.837,298.110 313.448,298.000 313.605 C 296.519 315.716,287.585 320.303,285.959 319.787 C 285.008 319.485,280.295 316.853,280.003 316.461 C 279.891 316.311,278.720 315.338,277.400 314.299 C 276.080 313.260,273.200 310.958,271.000 309.184 C 262.158 302.054,260.883 301.200,259.084 301.200 C 257.735 301.200,256.000 302.508,256.000 303.526 C 256.000 303.787,255.865 304.000,255.700 304.001 C 255.535 304.001,254.773 304.946,254.007 306.101 C 253.241 307.255,251.603 309.550,250.366 311.200 C 249.130 312.850,246.251 316.810,243.967 320.000 C 241.684 323.190,239.492 326.154,239.097 326.587 C 238.410 327.339,235.231 331.738,227.400 342.770 C 225.420 345.560,223.311 348.463,222.713 349.221 C 222.116 349.979,220.774 351.770,219.732 353.200 C 218.690 354.630,216.853 357.150,215.649 358.800 C 214.445 360.450,213.004 362.430,212.447 363.200 C 211.889 363.970,211.291 364.660,211.117 364.733 C 210.942 364.807,210.800 365.107,210.800 365.400 C 210.800 365.693,210.649 365.993,210.464 366.067 C 210.187 366.176,202.527 376.584,200.400 379.741 C 200.070 380.230,199.329 381.254,198.753 382.016 C 194.698 387.377,183.971 386.822,289.371 386.703 C 390.460 386.588,382.564 386.827,380.116 383.952 C 379.483 383.208,378.613 382.085,378.182 381.455 C 376.393 378.836,374.898 376.781,373.200 374.604 C 372.210 373.335,371.220 372.005,371.000 371.648 C 370.780 371.292,370.015 370.250,369.300 369.333 C 368.585 368.416,368.000 367.493,368.000 367.282 C 368.000 367.071,367.711 366.658,367.358 366.365 C 366.728 365.842,364.176 362.353,362.600 359.858 C 362.160 359.162,361.491 358.234,361.113 357.796 C 360.736 357.358,360.016 356.425,359.513 355.722 C 357.211 352.500,352.896 346.561,351.905 345.249 C 350.710 343.669,348.523 340.608,347.011 338.400 C 346.484 337.630,345.777 336.691,345.440 336.314 C 345.103 335.936,344.373 334.946,343.817 334.114 C 343.262 333.281,342.092 331.610,341.217 330.400 C 340.343 329.190,339.195 327.570,338.666 326.800 C 338.137 326.030,337.320 325.057,336.852 324.638 C 336.383 324.219,336.000 323.719,336.000 323.526 C 336.000 323.201,334.144 320.625,331.876 317.800 C 331.346 317.140,330.612 316.015,330.246 315.300 C 329.879 314.585,329.449 313.996,329.290 313.992 C 329.130 313.988,328.468 313.088,327.817 311.992 C 327.167 310.896,326.521 310.000,326.382 310.000 C 326.242 310.000,325.943 309.595,325.717 309.100 C 325.491 308.605,324.697 307.445,323.953 306.521 C 323.209 305.598,321.970 303.978,321.200 302.921 C 318.795 299.621,318.487 299.482,316.131 300.644 M397.680 398.480 C 396.775 399.385,397.147 400.000,398.600 400.000 C 399.827 400.000,400.000 399.876,400.000 399.000 C 400.000 397.892,398.585 397.575,397.680 398.480 " stroke="none" fill="#f3f3f3" fill-rule="evenodd"></path><path id="path2" d="M41.800 128.198 C 41.580 128.272,39.837 128.815,37.927 129.405 C 34.681 130.407,31.290 132.199,29.970 133.610 C 28.561 135.117,26.910 137.517,26.400 138.800 C 26.094 139.570,25.499 140.677,25.077 141.259 C 23.831 142.980,23.642 148.530,23.620 184.140 C 23.602 213.835,23.667 217.420,24.246 218.640 L 24.891 220.000 30.757 220.000 C 36.541 220.000,37.120 219.892,38.800 218.500 C 38.910 218.408,39.090 202.644,39.200 183.467 C 39.389 150.507,39.441 148.506,40.150 146.885 C 41.516 143.758,41.083 143.826,60.936 143.600 L 78.472 143.400 79.236 142.456 C 80.367 141.058,80.394 129.681,79.269 128.662 C 78.602 128.059,43.506 127.624,41.800 128.198 M107.200 128.600 C 101.237 130.349,97.917 132.238,95.763 135.108 C 95.147 135.928,94.530 136.690,94.392 136.800 C 94.255 136.910,93.345 138.620,92.371 140.600 L 90.600 144.200 90.474 180.800 C 90.356 214.815,90.396 217.492,91.037 218.700 L 91.726 220.000 97.809 220.000 C 103.330 220.000,103.988 219.924,104.932 219.182 L 105.971 218.365 106.086 183.282 C 106.198 148.823,106.214 148.175,107.014 146.814 C 108.795 143.783,108.528 143.824,127.839 143.600 C 146.729 143.381,145.979 143.488,146.835 140.895 C 147.686 138.316,147.084 129.598,145.994 128.715 C 144.838 127.779,110.348 127.676,107.200 128.600 M357.400 128.275 C 354.221 128.998,349.216 131.112,347.314 132.534 C 345.337 134.013,341.200 139.387,341.200 140.477 C 341.200 140.679,340.812 141.689,340.338 142.722 C 338.972 145.696,338.852 148.988,338.825 184.211 C 338.795 224.456,337.737 219.985,347.290 219.994 L 353.579 220.000 354.190 218.820 C 354.723 217.789,354.800 213.258,354.800 182.909 C 354.800 145.297,354.672 147.695,356.786 145.588 C 358.632 143.748,358.008 143.810,376.545 143.600 L 394.169 143.400 395.117 142.000 C 396.539 139.900,396.343 129.968,394.856 128.764 C 393.954 128.034,360.385 127.596,357.400 128.275 M303.531 128.747 C 300.624 129.435,300.800 127.017,300.800 166.180 C 300.800 204.788,300.806 204.891,303.248 209.508 C 306.608 215.857,314.861 220.000,324.149 220.000 L 327.535 220.000 328.419 218.569 C 329.241 217.239,329.291 216.776,329.121 212.059 C 328.877 205.320,328.676 204.997,324.480 204.631 C 320.423 204.277,318.554 203.251,317.133 200.595 L 316.065 198.600 316.033 164.989 C 315.998 128.825,316.091 130.539,314.065 128.900 C 313.413 128.373,305.595 128.259,303.531 128.747 M45.810 157.180 C 45.085 158.583,44.954 166.899,45.620 169.297 C 46.182 171.321,45.623 171.263,63.152 171.122 L 78.471 171.000 79.236 170.056 C 80.371 168.653,80.361 158.265,79.223 156.900 L 78.472 156.000 62.446 156.000 L 46.421 156.000 45.810 157.180 M112.982 156.982 C 111.792 158.171,111.494 166.815,112.555 169.353 C 113.306 171.152,113.666 171.191,129.400 171.191 C 148.212 171.191,147.000 171.736,147.000 163.285 L 147.000 157.935 145.878 156.967 L 144.755 156.000 129.360 156.000 L 113.964 156.000 112.982 156.982 M173.171 156.567 C 166.208 157.831,161.963 161.142,158.512 168.000 L 156.600 171.800 156.474 194.847 L 156.348 217.895 157.274 218.917 C 158.179 219.917,158.338 219.942,164.354 220.070 L 170.508 220.200 171.695 218.736 C 172.840 217.324,172.866 217.199,172.441 215.216 C 171.837 212.399,171.840 179.600,172.445 176.720 C 173.529 171.557,173.976 171.442,193.800 171.200 C 214.287 170.950,212.808 171.564,212.787 163.326 C 212.774 157.989,212.603 157.358,210.926 156.465 C 209.702 155.813,176.834 155.902,173.171 156.567 M362.200 156.478 C 360.879 157.227,360.812 157.570,360.806 163.654 L 360.800 169.508 361.900 170.254 C 363.450 171.305,392.672 171.638,394.223 170.622 C 396.324 169.245,396.865 159.489,394.964 157.231 L 393.929 156.000 378.464 156.012 C 367.693 156.021,362.757 156.162,362.200 156.478 " stroke="none" fill="#0c1cfc" fill-rule="evenodd"></path></g></svg>